<svg width="327" height="262" viewBox="0 0 327 262" fill="none" xmlns="http://www.w3.org/2000/svg">
<path d="M327 205.429C327 223.293 315.234 240.54 304.736 251.852C298.469 258.605 289.374 261.6 280.163 261.6H99.3427C63.3651 261.6 7.10212 205.175 6.46695 169.193C6.38727 164.679 6.55104 159.947 7.04423 154.971C12.1391 103.56 46.784 87.8515 82.9573 68.3345C119.131 48.8176 95.6944 20.2562 157.851 3.11936C220.008 -14.0175 285.732 42.6293 283.694 95.4679C281.656 148.307 327 155.923 327 205.429Z" fill="#D5F3F0"/>
<path d="M56.5492 67.7639C77.5551 60.6198 90.8588 40.2731 94.8849 30.9928C102.237 9.98077 80.706 21.0121 65.4767 39.9229C50.2474 58.8338 30.2918 76.694 56.5492 67.7639Z" fill="#D5F3F0"/>
<path d="M230.338 188.53C229.166 216.3 246.466 246.702 256.286 259.812C256.798 260.496 257.603 260.884 258.458 260.884H265.758C267.415 260.884 268.697 259.412 268.479 257.77C261.975 208.784 243.947 190.482 233.391 186.37C231.892 185.787 230.406 186.924 230.338 188.53Z" fill="white"/>
<path fill-rule="evenodd" clip-rule="evenodd" d="M233.057 187.229C232.243 186.911 231.304 187.487 231.258 188.569C230.681 202.264 234.66 216.663 240.038 229.308C245.413 241.945 252.154 252.759 257.023 259.259C257.356 259.703 257.882 259.963 258.458 259.963H265.759C266.855 259.963 267.711 258.984 267.566 257.891C261.079 209.033 243.146 191.158 233.057 187.229ZM229.418 188.492C229.508 186.36 231.543 184.662 233.725 185.512C244.749 189.806 262.871 208.535 269.393 257.648C269.683 259.839 267.975 261.805 265.759 261.805H258.458C257.323 261.805 256.242 261.289 255.549 260.364C250.598 253.754 243.78 242.813 238.343 230.029C232.909 217.253 228.824 202.567 229.418 188.492Z" fill="#092724"/>
<path d="M285.61 171.972C262.887 192.282 258.337 239.882 258.403 258.572C258.408 260.063 259.631 261.221 261.123 261.221H267.882C268.905 261.221 269.856 260.637 270.329 259.73C293.072 216.13 290.732 189.056 289.908 173.962C289.787 171.744 287.266 170.491 285.61 171.972Z" fill="#092724"/>
<path d="M303.552 214.465C285.636 223.027 271.518 244.188 264.995 257.042C264.089 258.828 265.416 260.884 267.419 260.884H275.454C275.987 260.884 276.513 260.729 276.957 260.434C296.478 247.482 304.565 228.234 306.884 217.072C307.295 215.095 305.374 213.594 303.552 214.465Z" fill="white"/>
<path fill-rule="evenodd" clip-rule="evenodd" d="M305.983 216.884C306.237 215.657 305.087 214.752 303.949 215.296C295.159 219.497 287.252 226.817 280.711 234.731C274.177 242.637 269.053 251.082 265.817 257.459C265.238 258.599 266.066 259.963 267.419 259.963H275.454C275.809 259.963 276.158 259.859 276.448 259.667L276.957 260.434L276.448 259.667C295.715 246.882 303.698 227.877 305.983 216.884ZM303.155 213.634C305.661 212.436 308.353 214.532 307.786 217.259C305.432 228.591 297.24 248.081 277.467 261.202C276.869 261.598 276.164 261.805 275.454 261.805H267.419C264.766 261.805 262.94 259.057 264.174 256.625C267.461 250.148 272.657 241.585 279.291 233.557C285.919 225.537 294.029 217.995 303.155 213.634Z" fill="#092724"/>
<path fill-rule="evenodd" clip-rule="evenodd" d="M240.021 197.117C243.79 202.231 247.34 209.234 250.523 216.811C252.679 221.943 254.675 227.358 256.463 232.661L258.241 226.981L259.999 227.531L257.455 235.658C259.089 240.68 260.525 245.535 261.721 249.879C262.826 253.891 263.727 257.469 264.389 260.341L262.594 260.755C261.961 258.011 261.106 254.607 260.06 250.786L253.699 247.937L254.453 246.256L259.419 248.481C258.319 244.579 257.04 240.325 255.612 235.949C253.664 229.979 251.438 223.789 249.008 217.963L240.424 216.049L240.825 214.251L248.123 215.878C245.151 209.004 241.912 202.789 238.538 198.21L240.021 197.117Z" fill="#092724"/>
<path fill-rule="evenodd" clip-rule="evenodd" d="M278.453 203.411C279.785 198.634 281.053 194.312 282.193 190.743C283.518 186.6 284.649 183.54 285.491 181.954L283.864 181.09C282.934 182.841 281.758 186.052 280.439 190.182C279.111 194.336 277.617 199.488 276.055 205.167C274.965 209.13 273.841 213.353 272.717 217.678L270.056 211.426L268.361 212.148L271.96 220.604C270.602 225.882 269.253 231.258 267.974 236.452C265.759 245.444 263.751 253.891 262.258 260.34L264.053 260.756C265.522 254.41 267.491 246.125 269.665 237.29L278.723 232.44L277.854 230.816L270.259 234.882C271.412 230.224 272.614 225.451 273.822 220.76C275.136 215.66 276.458 210.657 277.735 206.008L285.158 201.476L284.198 199.904L278.453 203.411Z" fill="white"/>
<path fill-rule="evenodd" clip-rule="evenodd" d="M292.895 229.65C295.134 227.323 297.322 225.258 299.379 223.602L298.224 222.167C295.516 224.346 292.626 227.178 289.725 230.332C287.845 232.375 285.955 234.56 284.101 236.8L284.578 233.79L282.759 233.501L281.783 239.65C279.341 242.704 276.994 245.795 274.855 248.717C271.514 253.278 268.674 257.43 266.755 260.382L268.3 261.386C270.146 258.545 272.864 254.569 276.066 250.182H282.655V248.34H277.421C279.293 245.817 281.3 243.198 283.373 240.611C285.817 237.562 288.351 234.561 290.861 231.818L297.257 230.857L296.983 229.035L292.895 229.65Z" fill="#092724"/>
<path d="M137.36 261.6H182.996C195.699 256.894 212.636 251.246 208.402 240.422C204.167 229.598 182.996 244.187 177.35 233.834C171.705 223.48 217.341 222.068 212.636 208.891C207.931 195.714 179.232 212.656 182.996 199.949C186.76 187.243 218.752 191.949 217.341 178.772C215.929 165.594 191.935 187.243 189.112 172.183C186.289 157.123 212.165 130.298 191.935 125.592C171.705 120.886 177.35 169.83 170.293 172.183C163.236 174.536 156.649 149.123 146.769 160.417C136.889 171.712 153.827 197.126 146.769 208.891C139.712 220.656 129.832 176.889 118.541 197.126C109.508 213.315 127.323 246.854 137.36 261.6Z" fill="white"/>
<path d="M71.7722 142.96L69.8627 152.985L71.7722 163.488C76.7051 164.124 86.7617 165.397 87.5255 165.397C88.2893 165.397 93.8905 160.623 96.5956 158.236L93.7314 142.96C101.751 140.287 104.393 128.48 104.711 122.911C106.621 99.9968 91.3445 97.1325 88.4803 97.1325C85.616 97.1325 67.4758 97.1325 65.089 116.228C63.1795 131.503 68.7488 140.414 71.7722 142.96Z" fill="#EFCB96"/>
<path d="M25.466 261.349H100.414L195.411 260.872C201.289 257.038 202.935 250.853 202.95 245.607C202.964 241.309 199.865 237.85 195.993 235.984C180.61 228.568 157.261 217.092 152.925 214.089C146.719 209.793 140.991 186.402 129.534 168.261C120.368 153.749 103.119 150.439 96.1174 150.599C95.4809 153.463 92.7758 159.191 83.2283 159.191C73.6808 159.191 69.7027 153.463 68.4297 150.599C63.4968 150.599 49.8121 153.272 38.3551 163.965C24.0439 177.322 17.8367 207.841 12.1115 235.99L12.0995 236.049C7.51674 258.581 19.101 261.986 25.466 261.349Z" fill="#FF9F1C"/>
<path d="M57.4502 224.591L64.6108 195.472L63.1786 224.591L95.7852 232.544C99.9718 233.565 103.887 236.169 104.679 240.405C106.092 247.961 103.274 255.996 99.9365 258.962C102.801 254.864 102.801 239.39 99.4591 237.003C96.7858 235.094 63.656 228.888 47.4253 226.024L57.4502 224.591Z" fill="#092724"/>
<path d="M128.579 187.834L146.242 261.349H153.88L128.579 187.834Z" fill="#092724"/>
<path d="M77.0213 133.413C75.1118 144.488 72.4067 145.666 71.2929 144.87C57.9264 136.277 58.2489 108.823 66.5191 99.5194C74.1571 90.9267 79.8856 94.2683 95.639 90.4493C111.392 86.6303 116.643 93.3135 113.779 101.906C109.656 114.276 96.5937 107.635 93.2521 109.067C89.9105 110.499 85.6141 114.318 83.7046 121.956C81.7951 129.594 80.8403 128.162 79.4082 123.865C77.9761 119.569 74.1571 113.363 71.2929 121.001C69.0015 127.112 74.1571 131.822 77.0213 133.413Z" fill="#092724"/>
<path d="M133.352 261.349C133.352 248.365 114.098 244.482 104.71 244.164C104.71 250.656 100.732 258.326 98.5039 261.349H133.352Z" fill="#EFCB96"/>
<path d="M226.136 260.472C226.136 248.93 210.879 246.477 202.648 246.195C202.648 251.966 197.538 257.785 195.584 260.472H226.136Z" fill="#EFCB96"/>
<path fill-rule="evenodd" clip-rule="evenodd" d="M11.0783 244.118C10.8526 253.334 14.0841 261.349 23.9447 261.349H32.6285C30.3372 246.074 18.2168 236.845 12.4881 234.139C12.3624 234.757 12.2369 235.374 12.1117 235.99L12.0997 236.048C11.4891 239.051 11.1655 241.73 11.0783 244.118Z" fill="#092724"/>
<path d="M84.5686 142.815C89.0146 144.297 92.0949 143.433 93.6387 142.815L95.0708 149.498C89.1428 148.757 85.8036 144.513 84.5686 142.815Z" fill="#092724"/>
<path d="M160.276 52.2018C160.276 48.8078 163.027 46.0563 166.421 46.0563H316.386C319.78 46.0563 322.531 48.8077 322.531 52.2018V185.735C322.531 189.129 319.78 191.881 316.386 191.881H166.421C163.027 191.881 160.276 189.129 160.276 185.735V52.2018Z" fill="white"/>
<path fill-rule="evenodd" clip-rule="evenodd" d="M159.355 52.2018C159.355 48.299 162.519 45.1352 166.422 45.1352H316.386C320.289 45.1352 323.452 48.299 323.452 52.2018V185.735C323.452 189.638 320.289 192.802 316.386 192.802H166.422C162.519 192.802 159.355 189.638 159.355 185.735V52.2018ZM166.422 46.9774C163.536 46.9774 161.197 49.3165 161.197 52.2018V185.735C161.197 188.62 163.536 190.96 166.422 190.96H316.386C319.271 190.96 321.61 188.62 321.61 185.735V52.2018C321.61 49.3165 319.271 46.9774 316.386 46.9774H166.422Z" fill="#092724"/>
<path d="M160.276 52.2018C160.276 48.8077 163.027 46.0563 166.421 46.0563H316.358C319.752 46.0563 322.503 48.8077 322.503 52.2018V72.708H160.276V52.2018Z" fill="white"/>
<path fill-rule="evenodd" clip-rule="evenodd" d="M159.355 52.2018C159.355 48.299 162.519 45.1352 166.422 45.1352H316.358C320.261 45.1352 323.425 48.299 323.425 52.2018V73.6291H159.355V52.2018ZM166.422 46.9774C163.536 46.9774 161.197 49.3165 161.197 52.2018V71.7868H321.582V52.2018C321.582 49.3165 319.243 46.9774 316.358 46.9774H166.422Z" fill="#092724"/>
<path d="M180.815 60.4334C180.815 62.702 178.975 64.5411 176.707 64.5411C174.438 64.5411 172.599 62.702 172.599 60.4334C172.599 58.1647 174.438 56.3256 176.707 56.3256C178.975 56.3256 180.815 58.1647 180.815 60.4334Z" fill="#FF9F1C"/>
<path d="M198.273 60.4334C198.273 62.702 196.433 64.5411 194.165 64.5411C191.896 64.5411 190.057 62.702 190.057 60.4334C190.057 58.1647 191.896 56.3256 194.165 56.3256C196.433 56.3256 198.273 58.1647 198.273 60.4334Z" fill="#FF9F1C"/>
<path d="M214.704 60.4334C214.704 62.702 212.865 64.5411 210.596 64.5411C208.327 64.5411 206.488 62.702 206.488 60.4334C206.488 58.1647 208.327 56.3256 210.596 56.3256C212.865 56.3256 214.704 58.1647 214.704 60.4334Z" fill="#FF9F1C"/>
<path d="M265.374 81.3342L267.161 90.7173L265.374 100.547C260.757 101.143 251.344 102.335 250.629 102.335C249.914 102.335 244.671 97.8664 242.139 95.6323L244.82 81.3342C237.314 78.832 234.841 67.7808 234.544 62.5679C232.756 41.1207 247.054 38.4398 249.735 38.4398C252.416 38.4398 269.395 38.4398 271.629 56.3125C273.417 70.6106 268.204 78.9512 265.374 81.3342Z" fill="#EFCB96"/>
<path d="M254.651 96.526C263.587 96.526 267.311 91.1642 268.502 88.4833L271.63 89.3769L251.97 191.251H248.842H201.033L230.97 94.7387L241.246 88.4833H242.587C243.183 91.1642 245.715 96.526 254.651 96.526Z" fill="white"/>
<path fill-rule="evenodd" clip-rule="evenodd" d="M267.985 87.3777L267.66 88.1092C266.569 90.5639 263.119 95.6048 254.651 95.6048C250.381 95.6048 247.746 94.3303 246.114 92.8315C244.464 91.3167 243.755 89.4944 243.486 88.2834L243.325 87.5621H240.988L230.193 94.133L199.782 192.172H252.73L272.694 88.723L267.985 87.3777ZM241.876 89.4044C242.302 90.8168 243.174 92.6328 244.868 94.1884C246.885 96.0407 249.984 97.4471 254.651 97.4471C263.324 97.4471 267.398 92.6132 268.992 89.5813L270.565 90.0308L251.209 190.33H202.283L231.746 95.3444L241.504 89.4044H241.876Z" fill="#092724"/>
<path d="M253.757 141.654C256.259 125.569 264.927 99.2068 268.949 88.0364C276.544 89.3769 293.434 94.56 300.226 104.569C307.017 114.577 316.162 147.761 319.886 163.102C323.907 176.953 323.907 192.145 308.715 192.145H239.906C232.757 178.293 234.991 171.591 237.225 168.91C239.012 166.765 246.941 165.038 250.682 164.442C251.655 156.438 252.724 148.297 253.757 141.654Z" fill="#FF9F1C"/>
<path d="M278.778 157.74L272.076 130.484L273.863 157.293L240.793 165.66C238.219 166.311 235.861 167.912 235.132 170.465C232.957 178.083 236.342 186.86 239.011 189.911C236.275 186.783 236.33 171.591 239.458 169.357C241.96 167.57 272.969 161.761 288.161 159.08L278.778 157.74Z" fill="#092724"/>
<path d="M268.055 58.5466C269.843 63.551 264.928 66.5893 262.247 67.4829L267.127 90.2704L267.588 88.4282C276.799 89.3493 287.417 93.8451 291.29 96.5259C293.524 82.6747 285.034 76.866 280.119 66.1425C275.204 55.4189 279.226 30.3972 254.204 30.3972C234.187 30.3972 231.268 48.2698 232.31 57.2061C241.246 54.704 246.459 45.44 247.949 41.1208C248.842 43.3548 256.438 63.4616 259.119 58.5466C261.8 53.6316 265.821 52.2912 268.055 58.5466Z" fill="#092724"/>
<path d="M226.055 92.5046C232.131 86.4279 234.544 72.3979 234.991 66.1425C236.421 76.5086 242.14 80.5895 244.821 81.3342L243.481 88.4833C235.617 88.1258 228.587 91.0152 226.055 92.5046Z" fill="#092724"/>
<path d="M302.46 192.145C304.605 177.846 315.418 168.761 320.779 166.229C323.676 177.912 323.013 192.145 310.503 192.145H302.46Z" fill="#092724"/>
<path d="M254.183 81.6032C249.893 83.033 245.856 81.7384 244.366 81.1426L243.445 87.13C249.165 86.4151 252.991 83.2415 254.183 81.6032Z" fill="#092724"/>
<path d="M161.509 114.518C162.162 117.187 165.19 119.062 165.734 120.035L155.792 128.697C154.158 125.499 151.848 118.63 143.681 117.629C132.247 116.378 131.252 107.813 136.969 106.562C141.543 105.561 149.529 107.172 153.749 108.006L148.928 105.91C148.26 105.619 148.035 104.785 148.466 104.198C148.704 103.874 149.095 103.698 149.496 103.722C151.139 103.82 154.153 103.965 156.609 105.76C159.023 107.524 160.692 111.181 161.509 114.518Z" fill="#EFCB96"/>
<path fill-rule="evenodd" clip-rule="evenodd" d="M241.694 88.0364C237.225 98.4621 227.574 123.782 224.715 141.654C221.855 159.527 219.651 182.464 218.906 192.145H197.012L197.727 190.356C192.171 190.313 186.233 188.756 182.713 186.336C175.564 181.421 151.036 136.293 151.036 130.931C151.036 125.569 161.312 116.633 165.781 116.633C167.909 116.633 173.584 122.207 179.284 127.805C185.55 133.96 191.845 140.143 193.483 138.973C194.699 138.105 195.51 135.615 196.703 131.951C198.579 126.191 201.401 117.528 208.228 107.696C211.06 103.618 214.411 100.255 217.871 97.559C225.097 90.6398 236.659 88.3241 241.694 88.0364Z" fill="#FF9F1C"/>
<path d="M212.203 132.271C210.779 149.639 205.082 180.718 202.708 192.145H197.011C199.67 186.294 208.405 150.553 212.203 132.271Z" fill="#092724"/>
<path d="M173.777 174.719C176.905 180.081 180.479 187.23 188.075 189.017C191.406 190.127 194.799 190.465 197.905 190.376L202.82 183.8C192.346 177.792 179.68 175.088 173.777 174.719Z" fill="#092724"/>
<path d="M207.735 192.145C207.735 179.991 225.756 176.357 234.544 176.059C234.544 182.136 237.672 188.123 240.353 192.145H207.735Z" fill="#EFCB96"/>
<path d="M12.6236 80.8489L11.5715 86.1378C11.5075 86.4596 11.2704 86.7165 10.957 86.804L6.97015 87.9161C6.11241 88.1554 6.13424 89.3888 7.00024 89.6161L11.0993 90.6921C11.3986 90.7707 11.6362 91.0023 11.7245 91.3012L13.0427 95.7699C13.2906 96.6099 14.4663 96.6236 14.7151 95.7893L16.0917 91.1718C16.1725 90.9007 16.3785 90.687 16.6449 90.598L20.2823 89.3821C21.1017 89.1082 21.0561 87.9239 20.2174 87.6966L16.5759 86.71C16.2834 86.6308 16.0508 86.4052 15.9607 86.1136L14.3124 80.7778C14.0428 79.9051 12.801 79.9574 12.6236 80.8489Z" fill="#FF9F1C"/>
<path d="M179.122 12.9964L177.299 15.4333C177.188 15.5816 177.007 15.6529 176.83 15.6183L174.577 15.1776C174.092 15.0828 173.799 15.7187 174.173 16.0541L175.945 17.6416C176.074 17.7575 176.135 17.9361 176.105 18.1112L175.661 20.7289C175.577 21.221 176.158 21.5256 176.487 21.1621L178.306 19.1505C178.413 19.0323 178.568 18.9753 178.722 18.9972L180.827 19.2964C181.302 19.3638 181.57 18.747 181.21 18.4185L179.644 16.9925C179.518 16.878 179.458 16.7038 179.485 16.5319L179.979 13.3875C180.059 12.8732 179.43 12.5856 179.122 12.9964Z" fill="#FF9F1C"/>
<path d="M34.2821 132.444L32.7626 134.506C32.6702 134.631 32.5194 134.692 32.3718 134.662L30.4938 134.29C30.0898 134.209 29.8461 134.747 30.1579 135.031L31.6338 136.375C31.7416 136.473 31.7925 136.624 31.7677 136.772L31.3974 138.987C31.3278 139.403 31.8116 139.661 32.0855 139.353L33.6016 137.651C33.6907 137.551 33.8197 137.503 33.9482 137.522L35.7028 137.775C36.0981 137.832 36.3219 137.31 36.0214 137.032L34.7165 135.825C34.6117 135.728 34.5616 135.581 34.5841 135.436L34.9956 132.775C35.0628 132.34 34.5382 132.096 34.2821 132.444Z" fill="#FF9F1C"/>
<path d="M37.7661 31.3183C37.7661 28.7747 39.8281 26.7127 42.3717 26.7127H121.77C124.314 26.7127 126.376 28.7747 126.376 31.3183V65.6437C126.376 68.1873 124.314 70.2494 121.77 70.2494H42.3717C39.8281 70.2494 37.7661 68.1873 37.7661 65.6437V31.3183Z" fill="white"/>
<path fill-rule="evenodd" clip-rule="evenodd" d="M36.8452 31.3183C36.8452 28.266 39.3196 25.7915 42.372 25.7915H121.771C124.823 25.7915 127.297 28.266 127.297 31.3183V65.6437C127.297 68.6961 124.823 71.1705 121.771 71.1705H42.372C39.3196 71.1705 36.8452 68.6961 36.8452 65.6437V31.3183ZM42.372 27.6338C40.3371 27.6338 38.6875 29.2834 38.6875 31.3183V65.6437C38.6875 67.6786 40.3371 69.3282 42.372 69.3282H121.771C123.806 69.3282 125.455 67.6786 125.455 65.6437V31.3183C125.455 29.2834 123.806 27.6338 121.771 27.6338H42.372Z" fill="#092724"/>
<path d="M64.3209 48.442C64.3209 51.1076 62.16 53.2685 59.4944 53.2685C56.8289 53.2685 54.668 51.1076 54.668 48.442C54.668 45.7765 56.8289 43.6156 59.4944 43.6156C62.16 43.6156 64.3209 45.7765 64.3209 48.442Z" fill="#FF9F1C"/>
<path d="M87.3692 48.4414C87.3692 51.107 85.2084 53.2679 82.5428 53.2679C79.8772 53.2679 77.7163 51.107 77.7163 48.4414C77.7163 45.7758 79.8772 43.615 82.5428 43.615C85.2084 43.615 87.3692 45.7758 87.3692 48.4414Z" fill="#FF9F1C"/>
<path d="M110.931 48.4414C110.931 51.107 108.77 53.2679 106.104 53.2679C103.439 53.2679 101.278 51.107 101.278 48.4414C101.278 45.7758 103.439 43.615 106.104 43.615C108.77 43.615 110.931 45.7758 110.931 48.4414Z" fill="#FF9F1C"/>
</svg>
